<svg xmlns="http://www.w3.org/2000/svg" width="49" height="49"><g fill="#323232"><path d="M24.5 0a24.5 24.5 0 1 0 0 49 24.5 24.5 0 0 0 0-49zm0 47C12.1 47 2 36.9 2 24.5S12.1 2 24.5 2 47 12.1 47 24.5 36.9 47 24.5 47z"/><path d="M34.8 26.76c-.44-9.5-9.19-18.7-9.58-19.1l-.05-.04a.94.94 0 0 0-.11-.09.95.95 0 0 0-.13-.08l-.06-.03c-.02 0-.05 0-.08-.02a.9.9 0 0 0-.3-.04 1 1 0 0 0-.29.05l-.07.01c-.02.01-.03.03-.05.03a.9.9 0 0 0-.14.08.95.95 0 0 0-.11.1c-.02 0-.04.01-.05.03-.39.4-9.14 9.6-9.59 19.1v.2c-.02.37-.02.73-.01 1.1.37 10.25 9.98 12.82 10.07 12.84a1 1 0 0 0 .5 0c.1-.02 9.7-2.59 10.07-12.84.02-.36.01-.73 0-1.1l-.01-.2zm-18.02-3.51c2.22 2.06 5.37 3.52 6.72 4.1v4.54c-2.45-1.2-6.22-3.34-7.3-5.22.07-1.15.28-2.3.58-3.42zm2.03-5.1a12.4 12.4 0 0 0 4.69 3.06v3.94c-1.65-.76-4.42-2.21-6.02-4.04.4-1.02.84-2 1.33-2.96zm12.7 2.96c-1.58 1.82-4.35 3.28-6.01 4.04v-3.94c1.1-.41 3.18-1.37 4.7-3.06.48.95.93 1.94 1.32 2.96zm-6.01-2.06v-8.01a45.24 45.24 0 0 1 3.65 5.23 8.98 8.98 0 0 1-3.65 2.78zm0 12.84v-4.55c1.35-.57 4.5-2.03 6.72-4.1.3 1.14.51 2.28.58 3.43-1.08 1.88-4.85 4.02-7.3 5.22zm-2-12.84a8.92 8.92 0 0 1-3.65-2.78 45.38 45.38 0 0 1 3.65-5.23v8.01zm-7.12 10.77c2.33 1.99 5.7 3.63 7.12 4.29v4.4c-2.1-.9-6.16-3.33-7.12-8.68zm9.12 8.7v-4.41c1.43-.66 4.8-2.3 7.12-4.29-.95 5.41-5.02 7.81-7.12 8.7z"/></g></svg>